<svg xmlns="http://www.w3.org/2000/svg"  viewBox="0 0 50 50" width="50px" height="50px"><path d="M 3.5039062 12 C 1.9347705 11.994817 0.87857579 12.97636 0.4453125 13.849609 C 0.01204921 14.722858 0 15.564453 0 15.564453 A 1.0001 1.0001 0 0 0 0 15.59375 L 0 35 A 1.0001 1.0001 0 0 0 0.00390625 35.078125 C 0.00390625 35.078125 0.05696144 35.828363 0.5390625 36.554688 C 1.0211636 37.281011 2.0459252 38.004441 3.5019531 38.001953 C 4.8916439 38.000053 5.8837351 37.273604 6.3769531 36.578125 C 6.8701712 35.882646 6.9863281 35.166016 6.9863281 35.166016 A 1.0001 1.0001 0 0 0 7 35 L 7 31.802734 L 10.167969 36.554688 L 10.130859 36.494141 C 10.511831 37.164615 11.143097 37.525465 11.742188 37.730469 C 12.341278 37.935473 12.950104 38.001953 13.5 38.001953 C 15.411725 38.001953 17 36.431487 17 34.5 C 17 34.056649 16.90825 34.03442 16.851562 33.912109 C 16.794882 33.789799 16.730864 33.671331 16.654297 33.537109 C 16.501163 33.268666 16.298339 32.944015 16.058594 32.572266 C 15.579103 31.828767 14.950355 30.90254 14.322266 29.992188 C 13.310206 28.525308 12.655222 27.610988 12.300781 27.113281 L 14.707031 24.707031 A 1.0001 1.0001 0 0 0 14.738281 24.673828 C 14.738281 24.673828 15.354706 24.012223 15.748047 23.042969 C 16.141388 22.073714 16.298687 20.56089 15.259766 19.349609 C 14.281705 18.208994 12.842689 18.141009 11.925781 18.416016 C 11.008874 18.691022 10.371094 19.222656 10.371094 19.222656 A 1.0001 1.0001 0 0 0 10.292969 19.292969 L 6.9980469 22.587891 L 6.9921875 15.646484 A 1.0001 1.0001 0 0 0 6.9902344 15.580078 C 6.9902344 15.580078 6.9441634 14.743069 6.5058594 13.875 C 6.0675579 13.006938 5.0412971 12.005313 3.5039062 12 z M 30.503906 12 C 28.93477 11.9948 27.878577 12.97636 27.445312 13.849609 C 27.012049 14.722858 27 15.564453 27 15.564453 A 1.0001 1.0001 0 0 0 27 15.59375 L 27 35 A 1.0001 1.0001 0 0 0 27.003906 35.078125 C 27.003906 35.078125 27.056966 35.828363 27.539062 36.554688 C 28.021165 37.281011 29.045925 38.004441 30.501953 38.001953 C 31.891644 38.000053 32.883735 37.273604 33.376953 36.578125 C 33.870171 35.882646 33.986328 35.166016 33.986328 35.166016 A 1.0001 1.0001 0 0 0 34 35 L 34 31.802734 L 37.167969 36.554688 L 37.130859 36.494141 C 37.511831 37.164615 38.143096 37.525465 38.742188 37.730469 C 39.341277 37.935473 39.950104 38.001953 40.5 38.001953 C 42.411725 38.001953 44 36.431487 44 34.5 C 44 34.056649 43.908251 34.03442 43.851562 33.912109 C 43.794882 33.789799 43.730864 33.671331 43.654297 33.537109 C 43.501163 33.268666 43.298339 32.944015 43.058594 32.572266 C 42.579103 31.828767 41.950355 30.90254 41.322266 29.992188 C 40.310206 28.525308 39.655222 27.610988 39.300781 27.113281 L 41.707031 24.707031 A 1.0001 1.0001 0 0 0 41.738281 24.673828 C 41.738281 24.673828 42.354706 24.012223 42.748047 23.042969 C 43.141388 22.073714 43.298687 20.56089 42.259766 19.349609 C 41.281705 18.208994 39.842689 18.141009 38.925781 18.416016 C 38.008874 18.691022 37.371094 19.222656 37.371094 19.222656 A 1.0001 1.0001 0 0 0 37.292969 19.292969 L 33.998047 22.587891 L 33.992188 15.646484 A 1.0001 1.0001 0 0 0 33.990234 15.580078 C 33.990234 15.580078 33.944164 14.743069 33.505859 13.875 C 33.067647 13.006938 32.041297 12.005313 30.503906 12 z M 3.4960938 14 C 4.273703 14.0027 4.4917571 14.323912 4.7207031 14.777344 C 4.9482022 15.227909 4.9916313 15.702935 4.9921875 15.708984 L 5 25 A 1.0001 1.0001 0 0 0 6.7070312 25.707031 L 11.644531 20.769531 C 11.658351 20.759021 12.033391 20.47198 12.5 20.332031 C 12.975092 20.189538 13.286295 20.121006 13.740234 20.650391 C 14.226313 21.21711 14.13244 21.70477 13.894531 22.291016 C 13.658002 22.873861 13.270179 23.31514 13.265625 23.320312 L 13.261719 23.326172 L 10.292969 26.292969 A 1.0001 1.0001 0 0 0 10.185547 27.582031 C 10.185547 27.582031 11.433913 29.326111 12.677734 31.128906 C 13.299645 32.030304 13.920897 32.946061 14.378906 33.65625 C 14.607911 34.011345 14.795712 34.316452 14.916016 34.527344 C 14.936406 34.563094 14.940901 34.573786 14.957031 34.603516 C 14.896341 35.391837 14.289999 36.001953 13.5 36.001953 C 13.128896 36.001953 12.702082 35.945133 12.388672 35.837891 C 12.075262 35.730644 11.917169 35.590385 11.869141 35.505859 A 1.0001 1.0001 0 0 0 11.832031 35.445312 L 7.8320312 29.445312 A 1.0001 1.0001 0 0 0 6.2929688 29.292969 L 5.2929688 30.292969 A 1.0001 1.0001 0 0 0 5 31 L 5 34.863281 C 4.99477 34.889521 4.951076 35.132833 4.7460938 35.421875 C 4.5303118 35.726146 4.2723561 36.00088 3.4980469 36.001953 C 2.6130748 36.003465 2.3877271 35.724394 2.2050781 35.449219 C 2.0258159 35.179146 2.0009823 34.940766 2 34.931641 L 2 15.623047 C 2 15.623047 2.027045 15.164032 2.2382812 14.738281 C 2.4495181 14.31253 2.6432296 13.997183 3.4960938 14 z M 30.496094 14 C 31.273703 14.0027 31.491757 14.323912 31.720703 14.777344 C 31.948202 15.227909 31.99163 15.702935 31.992188 15.708984 L 32 25 A 1.0001 1.0001 0 0 0 33.707031 25.707031 L 38.644531 20.769531 C 38.658351 20.759021 39.033391 20.47198 39.5 20.332031 C 39.975092 20.189538 40.286295 20.121006 40.740234 20.650391 C 41.226313 21.21711 41.13244 21.70477 40.894531 22.291016 C 40.658002 22.873861 40.270179 23.31514 40.265625 23.320312 L 40.261719 23.326172 L 37.292969 26.292969 A 1.0001 1.0001 0 0 0 37.185547 27.582031 C 37.185547 27.582031 38.433913 29.326111 39.677734 31.128906 C 40.299645 32.030304 40.920897 32.946061 41.378906 33.65625 C 41.607911 34.011345 41.795712 34.316452 41.916016 34.527344 C 41.936406 34.563094 41.940891 34.573786 41.957031 34.603516 C 41.896351 35.391837 41.289999 36.001953 40.5 36.001953 C 40.128896 36.001953 39.702082 35.945133 39.388672 35.837891 C 39.075262 35.730644 38.917169 35.590385 38.869141 35.505859 A 1.0001 1.0001 0 0 0 38.832031 35.445312 L 34.832031 29.445312 A 1.0001 1.0001 0 0 0 33.292969 29.292969 L 32.292969 30.292969 A 1.0001 1.0001 0 0 0 32 31 L 32 34.863281 C 31.9948 34.889521 31.95108 35.132833 31.746094 35.421875 C 31.530312 35.726146 31.272356 36.00088 30.498047 36.001953 C 29.613075 36.003453 29.387727 35.724394 29.205078 35.449219 C 29.025816 35.179146 29.000982 34.940766 29 34.931641 L 29 15.623047 C 29 15.623047 29.02705 15.164032 29.238281 14.738281 C 29.449518 14.31253 29.64323 13.997183 30.496094 14 z M 21.507812 18 C 19.85324 17.98686 18.785557 19.124468 18.382812 20.09375 C 18.181441 20.578391 18.090615 21.031738 18.044922 21.375 C 18.022072 21.546631 18.011459 21.69063 18.005859 21.796875 C 18.000252 21.90312 18 22.065333 18 21.984375 L 17.980469 34.998047 A 1.0001 1.0001 0 0 0 17.990234 35.134766 C 17.990234 35.134766 18.083724 35.862804 18.574219 36.568359 C 19.064717 37.273915 20.069628 37.997467 21.484375 38 C 22.883766 38.0026 23.883755 37.278664 24.378906 36.580078 C 24.874057 35.881493 24.986328 35.160156 24.986328 35.160156 A 1.0001 1.0001 0 0 0 25 35 L 25 21.996094 C 25 21.996094 25.02572 21.084043 24.625 20.117188 C 24.224283 19.150332 23.164841 18.013078 21.507812 18 z M 21.492188 20 C 22.369159 20.0069 22.561561 20.362168 22.777344 20.882812 C 22.993123 21.403457 23 21.972656 23 21.972656 A 1.0001 1.0001 0 0 0 23 21.984375 L 23 34.869141 C 22.9949 34.895401 22.95159 35.136652 22.748047 35.423828 C 22.533698 35.726242 22.276891 36.001442 21.488281 36 C 20.669029 35.998533 20.420798 35.721179 20.216797 35.427734 C 20.019195 35.143495 19.983105 34.898942 19.980469 34.882812 L 20 21.986328 A 1.0001 1.0001 0 0 0 20 21.984375 C 20 21.898665 19.998753 21.962954 20.001953 21.902344 C 20.005153 21.841734 20.012614 21.751291 20.027344 21.640625 C 20.056804 21.419293 20.119764 21.123062 20.228516 20.861328 C 20.445975 20.337906 20.627761 19.993137 21.492188 20 z M 46.5 24 C 44.578848 24 43 25.578848 43 27.5 C 43 29.421152 44.578848 31 46.5 31 C 48.421152 31 50 29.421152 50 27.5 C 50 25.578848 48.421152 24 46.5 24 z M 46.5 26 C 47.340272 26 48 26.659728 48 27.5 C 48 28.340272 47.340272 29 46.5 29 C 45.659728 29 45 28.340272 45 27.5 C 45 26.659728 45.659728 26 46.5 26 z"/></svg>